<svg xmlns="http://www.w3.org/2000/svg" width="81.297" height="108" viewBox="0 0 81.297 108"><g transform="translate(-294.936 -132.654)"><g transform="translate(299 136.654)"><g transform="translate(0 0)" fill="#ffc24a"><path d="M 1.627422690391541 83.20661163330078 L -1.976052284240723 81.73545074462891 L 10.5231351852417 1.70664918422699 C 10.85809803009033 -0.4408757984638214 12.68531036376953 -1.999850749969482 14.86776065826416 -1.999850749969482 C 16.50440979003906 -1.999850749969482 17.94416046142578 -1.131425857543945 18.71907234191895 0.3231742084026337 L 31.55048561096191 24.42594909667969 L 31.83809852600098 24.9661865234375 L 31.77411079406738 25.57485008239746 L 31.71264839172363 26.15959930419922 L 31.67241096496582 26.54244995117188 L 31.49293518066406 26.88299942016602 L 2.384810209274292 82.11492156982422 L 2.321647644042969 82.23477172851563 L 2.242910146713257 82.34500122070313 L 1.627422690391541 83.20661163330078 Z" stroke="none"/><path d="M 6.638227205257863e-06 82.04408264160156 L 0.6154780387878418 81.18246459960938 L 29.72360610961914 25.95053672790527 L 29.78506469726563 25.36579322814941 L 16.95393562316895 1.263536691665649 C 16.49447250366211 0.4010744690895081 15.6787691116333 0.00014769374683965 14.86776828765869 0.00014769374683965 C 13.78029251098633 0.00014769374683965 12.7011194229126 0.720629870891571 12.49917793273926 2.015265226364136 L 6.638227205257863e-06 82.04408264160156 M 3.254878044128418 84.36911010742188 L -3.952079057693481 81.42681884765625 L 8.547092437744141 1.398008108139038 C 9.034920692443848 -1.729391813278198 11.69319248199463 -3.999849081039429 14.86776351928711 -3.999849081039429 C 15.98192119598389 -3.999849081039429 17.07633590698242 -3.709920406341553 18.0327205657959 -3.16140604019165 C 19.06529235839844 -2.569206237792969 19.91300582885742 -1.689420461654663 20.4842357635498 -0.6171633005142212 L 33.31589126586914 23.48610877990723 L 33.89109420776367 24.56656455993652 L 33.76314926147461 25.78389358520508 L 33.70169067382813 26.36863708496094 L 33.62121963500977 27.13433647155762 L 33.26226425170898 27.81546592712402 L 4.154135227203369 83.04739379882813 L 4.027821063995361 83.28704833984375 L 3.870349407196045 83.50749206542969 L 3.254878044128418 84.36911010742188 Z" stroke="none" fill="#fff"/></g><g transform="translate(-0.89 -0.924)" fill="#ffa712"><path d="M 3.032771110534668 83.22354125976563 L -0.7229914665222168 82.00222015380859 L 11.63210868835449 2.988969087600708 C 11.80060863494873 1.909406542778015 12.30379581451416 0.9810815453529358 13.08719635009766 0.3048940300941467 C 13.83687114715576 -0.3421809673309326 14.7916955947876 -0.6985309720039368 15.77577114105225 -0.6985309720039368 C 17.33032035827637 -0.6985309720039368 18.71792030334473 0.1644815355539322 19.48757171630859 1.610031485557556 L 19.48887062072754 1.612456560134888 L 19.49015808105469 1.614894032478333 L 32.28969573974609 25.81513214111328 L 32.78337097167969 26.74854469299316 L 32.29107284545898 27.68268203735352 L 3.492519378662109 82.32668304443359 L 3.032771110534668 83.22354125976563 Z" stroke="none"/><path d="M 1.252999663352966 82.31119537353516 L 1.718299627304077 81.40348052978516 L 30.52174186706543 26.75020790100098 L 17.72221374511719 2.549965381622314 C 17.26834297180176 1.697528958320618 16.51602172851563 1.301467299461365 15.77578163146973 1.301467299461365 C 14.78120517730713 1.301467299461365 13.80821514129639 2.015826225280762 13.60809993743896 3.297936916351318 L 1.252999663352966 82.31119537353516 M 4.812585353851318 84.13584899902344 L -2.698971748352051 81.6932373046875 L 9.6561279296875 2.679979801177979 C 10.14248561859131 -0.4360773861408234 12.71624279022217 -2.698534488677979 15.77578544616699 -2.698534488677979 C 16.89022827148438 -2.698534488677979 17.98367118835449 -2.391177415847778 18.93788528442383 -1.809705972671509 C 19.90118598937988 -1.222691655158997 20.70172882080078 -0.3651916980743408 21.25294303894043 0.67007976770401 L 21.25552749633789 0.6749511957168579 L 21.25811386108398 0.6798226237297058 L 34.05764389038086 24.88006591796875 L 35.04499816894531 26.74687957763672 L 34.06038665771484 28.61515045166016 L 5.267623424530029 83.24815368652344 L 4.812585353851318 84.13584899902344 Z" stroke="none" fill="#fff"/></g><g transform="translate(-0.89 -0.924)" fill="#ffa000"><path d="M 3.032771110534668 83.22354125976563 L -0.7229914665222168 82.00222015380859 L 11.63210868835449 2.988969087600708 C 11.80060863494873 1.909406542778015 12.30379581451416 0.9810815453529358 13.08719635009766 0.3048940300941467 C 13.83687114715576 -0.3421809673309326 14.7916955947876 -0.6985309720039368 15.77577114105225 -0.6985309720039368 C 17.33032035827637 -0.6985309720039368 18.71792030334473 0.1644815355539322 19.48757171630859 1.610031485557556 L 19.48887062072754 1.612456560134888 L 19.49015808105469 1.614894032478333 L 32.28969573974609 25.81513214111328 L 32.78337097167969 26.74854469299316 L 32.29107284545898 27.68268203735352 L 3.492519378662109 82.32668304443359 L 3.032771110534668 83.22354125976563 Z" stroke="none"/><path d="M 1.252999663352966 82.31119537353516 L 1.718299627304077 81.40348052978516 L 30.52174186706543 26.75020790100098 L 17.72221374511719 2.549965381622314 C 17.26834297180176 1.697528958320618 16.51602172851563 1.301467299461365 15.77578163146973 1.301467299461365 C 14.78120517730713 1.301467299461365 13.80821514129639 2.015826225280762 13.60809993743896 3.297936916351318 L 1.252999663352966 82.31119537353516 M 4.812585353851318 84.13584899902344 L -2.698971748352051 81.6932373046875 L 9.6561279296875 2.679979801177979 C 10.14248561859131 -0.4360773861408234 12.71624279022217 -2.698534488677979 15.77578544616699 -2.698534488677979 C 16.89022827148438 -2.698534488677979 17.98367118835449 -2.391177415847778 18.93788528442383 -1.809705972671509 C 19.90118598937988 -1.222691655158997 20.70172882080078 -0.3651916980743408 21.25294303894043 0.67007976770401 L 21.25552749633789 0.6749511957168579 L 21.25811386108398 0.6798226237297058 L 34.05764389038086 24.88006591796875 L 35.04499816894531 26.74687957763672 L 34.06038665771484 28.61515045166016 L 5.267623424530029 83.24815368652344 L 4.812585353851318 84.13584899902344 Z" stroke="none" fill="#fff"/></g><g transform="translate(-73.374 -34.954)" fill="#f4bd62"><path d="M 112.7091445922852 80.55121612548828 L 111.8667297363281 80.55121612548828 L 111.8664398193359 80.55121612548828 L 110.6744766235352 80.55121612548828 L 110.1073379516602 79.50282287597656 L 100.6608963012695 62.04067230224609 L 100.4199981689453 61.59536361694336 L 100.4199981689453 61.08906173706055 L 100.4199981689453 60.25992202758789 L 100.4199981689453 59.767333984375 L 100.6487655639648 59.33109283447266 L 105.7520217895508 49.5994758605957 C 106.5122604370117 48.13498687744141 108.0206451416016 47.22550201416016 109.6894760131836 47.22550201416016 C 111.3558578491211 47.22550201416016 112.8674774169922 48.13254165649414 113.6344299316406 49.5926628112793 L 123.1923599243164 67.83869171142578 L 123.8661880493164 69.12502288818359 L 122.8516845703125 70.16400146484375 L 113.2976989746094 79.94847106933594 L 112.7091445922852 80.55121612548828 Z" stroke="none"/><path d="M 111.8667297363281 78.55121612548828 L 121.4207153320313 68.76673889160156 L 111.8638229370117 50.52270126342773 C 111.4099273681641 49.65857696533203 110.5489273071289 49.22550201416016 109.6894760131836 49.22550201416016 C 108.8312835693359 49.22550201416016 107.9746398925781 49.65723037719727 107.5261840820313 50.52270126342773 L 102.4199981689453 60.25992202758789 L 102.4199981689453 61.08906173706055 L 111.8664398193359 78.55121612548828 L 111.8667297363281 78.55121612548828 M 113.5515747070313 82.55121612548828 L 111.8667297363281 82.55121612548828 L 111.8664398193359 82.55121612548828 L 109.4825134277344 82.55121612548828 L 108.3482360839844 80.45444488525391 L 98.90179443359375 62.99229431152344 L 98.41999816894531 62.10166168212891 L 98.41999816894531 61.08906173706055 L 98.41999816894531 60.25992202758789 L 98.41999816894531 59.27474212646484 L 98.87752532958984 58.40225219726563 L 103.9818115234375 48.66865921020508 C 105.0889663696289 46.54436111450195 107.2745132446289 45.22550201416016 109.6894760131836 45.22550201416016 C 112.1013336181641 45.22550201416016 114.2914047241211 46.54253387451172 115.405029296875 48.66262435913086 L 124.9640045166016 66.91064453125 L 126.311653137207 69.48329925537109 L 124.2826461791992 71.56126403808594 L 114.7286529541016 81.34573364257813 L 113.5515747070313 82.55121612548828 Z" stroke="none" fill="#fff"/></g><g transform="translate(-73.596 -35.859)" fill="#ffa50e"><path d="M 111.4561157226563 82.38844299316406 L 110.163688659668 79.99941253662109 L 100.9799118041992 63.02342224121094 L 100.5826568603516 62.28908157348633 L 100.8254165649414 61.49024200439453 L 100.9790649414063 60.98465347290039 L 101.0326538085938 60.80834197998047 L 101.117546081543 60.64478302001953 L 106.2504043579102 50.75623321533203 C 106.9827346801758 49.34314346313477 108.3301544189453 48.49882125854492 109.8541641235352 48.49882125854492 C 111.4382171630859 48.49882125854492 112.9093170166016 49.42603302001953 113.6933517456055 50.91861343383789 L 122.9818725585938 68.60533142089844 L 123.6577987670898 69.89237213134766 L 122.6421737670898 70.9324951171875 L 113.3537445068359 80.44503021240234 L 111.4561157226563 82.38844299316406 Z" stroke="none"/><path d="M 111.9227752685547 79.04777526855469 L 121.2112045288086 69.53523254394531 L 111.9227752685547 51.84869384765625 C 111.4591674804688 50.96611785888672 110.6469573974609 50.49881744384766 109.8541641235352 50.49881744384766 C 109.1388702392578 50.49881744384766 108.4393997192383 50.87901306152344 108.0255126953125 51.67764282226563 L 102.8926544189453 61.56619262695313 L 102.7390060424805 62.07178115844727 L 111.9227752685547 79.04777526855469 M 110.9894638061523 85.72910308837891 L 108.4046020507813 80.9510498046875 L 99.22083282470703 63.97506332397461 L 98.42629241943359 62.50637435913086 L 98.91183471679688 60.90869140625 L 99.06548309326172 60.40310287475586 L 99.17264556884766 60.05048370361328 L 99.34243774414063 59.72338485717773 L 104.4752960205078 49.83483123779297 C 105.0040969848633 48.81447219848633 105.7832260131836 47.96622467041016 106.7272567749023 47.38406372070313 C 107.6663818359375 46.804931640625 108.7476577758789 46.49882125854492 109.8541641235352 46.49882125854492 C 112.1836853027344 46.49882125854492 114.3332138061523 47.83600234985352 115.4639358520508 49.98853302001953 L 124.7525482177734 67.67542266845703 L 126.104377746582 70.24950408935547 L 124.0731430053711 72.32974243164063 L 114.7847137451172 81.84228515625 L 110.9894638061523 85.72910308837891 Z" stroke="none" fill="#fff"/></g><g transform="translate(-73.596 -35.859)" fill="#ffa000"><path d="M 111.4561157226563 82.38844299316406 L 110.163688659668 79.99941253662109 L 100.9799118041992 63.02342224121094 L 100.5826568603516 62.28908157348633 L 100.8254165649414 61.49024200439453 L 100.9790649414063 60.98465347290039 L 101.0326538085938 60.80834197998047 L 101.117546081543 60.64478302001953 L 106.2504043579102 50.75623321533203 C 106.9827346801758 49.34314346313477 108.3301544189453 48.49882125854492 109.8541641235352 48.49882125854492 C 111.4382171630859 48.49882125854492 112.9093170166016 49.42603302001953 113.6933517456055 50.91861343383789 L 122.9818725585938 68.60533142089844 L 123.6577987670898 69.89237213134766 L 122.6421737670898 70.9324951171875 L 113.3537445068359 80.44503021240234 L 111.4561157226563 82.38844299316406 Z" stroke="none"/><path d="M 111.9227752685547 79.04777526855469 L 121.2112045288086 69.53523254394531 L 111.9227752685547 51.84869384765625 C 111.4591674804688 50.96611785888672 110.6469573974609 50.49881744384766 109.8541641235352 50.49881744384766 C 109.1388702392578 50.49881744384766 108.4393997192383 50.87901306152344 108.0255126953125 51.67764282226563 L 102.8926544189453 61.56619262695313 L 102.7390060424805 62.07178115844727 L 111.9227752685547 79.04777526855469 M 110.9894638061523 85.72910308837891 L 108.4046020507813 80.9510498046875 L 99.22083282470703 63.97506332397461 L 98.42629241943359 62.50637435913086 L 98.91183471679688 60.90869140625 L 99.06548309326172 60.40310287475586 L 99.17264556884766 60.05048370361328 L 99.34243774414063 59.72338485717773 L 104.4752960205078 49.83483123779297 C 105.0040969848633 48.81447219848633 105.7832260131836 47.96622467041016 106.7272567749023 47.38406372070313 C 107.6663818359375 46.804931640625 108.7476577758789 46.49882125854492 109.8541641235352 46.49882125854492 C 112.1836853027344 46.49882125854492 114.3332138061523 47.83600234985352 115.4639358520508 49.98853302001953 L 124.7525482177734 67.67542266845703 L 126.104377746582 70.24950408935547 L 124.0731430053711 72.32974243164063 L 114.7847137451172 81.84228515625 L 110.9894638061523 85.72910308837891 Z" stroke="none" fill="#fff"/></g><g transform="translate(0 -62.778)" fill="#f6820c"><path d="M 1.031514763832092 145.4686889648438 L 0.7735912799835205 144.8336791992188 L -1.772025227546692 142.9690093994141 L 27.94752502441406 86.17766571044922 L 29.71708488464355 82.79620361328125 L 31.49051475524902 86.17563629150391 L 40.78213500976563 103.8815994262695 L 41.19458389282227 104.6675491333008 L 40.88847351074219 105.5006942749023 L 40.41649627685547 106.7852935791016 L 40.26400375366211 107.2003173828125 L 39.95077514648438 107.5123825073242 L 2.704004764556885 144.6208801269531 L 2.418474674224854 144.9053497314453 L 2.045044660568237 145.0570373535156 L 1.031514763832092 145.4686889648438 Z" stroke="none"/><path d="M -4.172091848886339e-06 143.8963317871094 L 0.2788958251476288 143.6157073974609 L 1.292418003082275 143.2040405273438 L 38.5391960144043 106.0955581665039 L 39.01117324829102 104.8109436035156 L 29.71955108642578 87.10498046875 L -4.172091848886339e-06 143.8963317871094 M 1.784162521362305 147.3216857910156 L 0.9879990816116333 145.3615264892578 L -3.544059753417969 142.0416870117188 L 26.17549514770508 85.25033569335938 L 29.71460723876953 78.48741912841797 L 33.261474609375 85.24626922607422 L 42.55309677124023 102.9522323608398 L 43.37798309326172 104.5241317749023 L 42.76577377319336 106.1904220581055 L 42.29379653930664 107.4750366210938 L 41.98883056640625 108.3050994873047 L 41.36236190795898 108.9292373657227 L 4.115584850311279 146.0377197265625 L 3.54452919960022 146.6066741943359 L 2.797684669494629 146.9100189208984 L 1.784162521362305 147.3216857910156 Z" stroke="none" fill="#fff"/></g><path d="M39.68,149.924l33.164-18.418-9.47-58.08a2.269,2.269,0,0,0-3.841-1.233L0,131.59l32.974,18.333a6.907,6.907,0,0,0,6.706,0" transform="translate(0 -50.792)" fill="#fde068" stroke="#fff" stroke-width="4"/><g transform="translate(-0.916 -53.128)" fill="#fcca3f"><path d="M 37.22550201416016 154.8208770751953 C 35.71745681762695 154.8208770751953 34.22502136230469 154.4261932373047 32.90953826904297 153.6794891357422 L 32.89977264404297 153.6739501953125 L 32.89007949829102 153.6682891845703 L 2.816256523132324 136.1486663818359 L 0.6588094234466553 134.8918304443359 L 2.35631537437439 133.0608062744141 L 59.14263153076172 71.80780029296875 L 59.16216278076172 71.7867431640625 L 59.18228149414063 71.76625823974609 C 59.98189163208008 70.95194244384766 61.00700759887695 70.50348663330078 62.06880950927734 70.50348663330078 C 63.04566955566406 70.50348663330078 63.98552703857422 70.88200378417969 64.71527862548828 71.56929779052734 C 65.41680145263672 72.23001098632813 65.87343597412109 73.11720275878906 66.03582000732422 74.13494110107422 L 75.43291473388672 132.9695739746094 L 75.65184783935547 134.3402557373047 L 74.44435882568359 135.0248413085938 L 41.53754043579102 153.6817169189453 C 40.2230110168457 154.4269714355469 38.73193740844727 154.8208770751953 37.22550201416016 154.8208770751953 Z" stroke="none"/><path d="M 37.22551345825195 152.8208770751953 C 38.37152862548828 152.8208770751953 39.51748275756836 152.5279083251953 40.5511360168457 151.94189453125 L 73.45794677734375 133.2850189208984 L 64.06080627441406 74.45009613037109 C 63.86867523193359 73.24591827392578 63.00556564331055 72.50348663330078 62.06881713867188 72.50348663330078 C 61.5734748840332 72.50348663330078 61.05763244628906 72.71096801757813 60.60932159423828 73.16752624511719 L 3.823006868362427 134.4205474853516 L 33.89682006835938 151.9401550292969 C 34.93118286132813 152.5272827148438 36.07837677001953 152.8208770751953 37.22551345825195 152.8208770751953 M 73.45794677734375 133.2850189208984 L 73.458251953125 133.2847290039063 L 73.45794677734375 133.2850189208984 M 37.22550582885742 156.8208618164063 C 35.37199401855469 156.8208618164063 33.53815078735352 156.3360443115234 31.92224884033203 155.4188079833984 L 31.90273475646973 155.4077453613281 L 31.88335037231445 155.3964385986328 L 1.809535503387451 137.8768310546875 L -2.505378723144531 135.3631591796875 L 0.8896497488021851 131.7010803222656 L 57.67596435546875 70.44806671142578 L 57.71500778198242 70.40595245361328 L 57.7552490234375 70.36498260498047 C 58.93397903442383 69.16456604003906 60.46590805053711 68.50348663330078 62.06882095336914 68.50348663330078 C 63.55740737915039 68.50348663330078 64.98426055908203 69.07522583007813 66.08653259277344 70.11339569091797 C 67.11276245117188 71.07994079589844 67.77817535400391 72.36161041259766 68.01084899902344 73.81985473632813 L 77.40787506103516 132.6541442871094 L 77.84573364257813 135.3954772949219 L 75.43077850341797 136.7646636962891 L 42.52396392822266 155.4215393066406 C 40.90914916992188 156.3370056152344 39.07702255249023 156.8208618164063 37.22550582885742 156.8208618164063 Z" stroke="none" fill="#fff"/></g><g transform="translate(-0.001 -201.146)" fill="#eeab37"><path d="M 36.3288688659668 303.1456604003906 C 34.81191635131836 303.1456604003906 33.31062698364258 302.7487182617188 31.9873046875 301.9977416992188 L 31.71440315246582 301.8428649902344 L 31.50203704833984 301.6118774414063 L 30.62167930603027 300.6542053222656 L -0.45960733294487 282.6834411621094 L -1.760929584503174 281.9310302734375 L -1.400018453598022 280.4718322753906 L 1.713259339332581 267.8845520019531 L 2.607248306274414 264.2700805664063 L 5.127137184143066 267.0111999511719 L 33.15283966064453 297.4972229003906 L 33.96811676025391 297.9685974121094 C 34.68906021118164 298.3761901855469 35.50511169433594 298.5915832519531 36.3286247253418 298.591552734375 C 37.15415954589844 298.5915222167969 37.97216033935547 298.3751525878906 38.69418334960938 297.9658508300781 L 40.09779357910156 297.170166015625 L 40.09807586669922 297.1704711914063 L 71.77711486816406 279.212158203125 L 74.28302764892578 277.7915954589844 L 74.73828887939453 280.6359252929688 L 74.81959533691406 281.1438598632813 L 75.0390625 282.5150451660156 L 73.83102416992188 283.1998596191406 L 40.66707992553711 301.9996337890625 C 39.34466934204102 302.7493591308594 37.84451675415039 303.1456604003906 36.3288688659668 303.1456604003906 Z" stroke="none"/><path d="M 36.328857421875 301.1456604003906 C 37.48398208618164 301.1456604003906 38.63895034790039 300.8503723144531 39.68078231811523 300.2597351074219 L 72.84473419189453 281.4599609375 L 72.76342010498047 280.9520263671875 L 39.68078231811523 299.7060241699219 L 39.68050384521484 299.7057189941406 C 38.63883209228516 300.2962341308594 37.48363494873047 300.5915222167969 36.32870483398438 300.591552734375 C 35.17264175415039 300.5916137695313 34.016845703125 300.2958374023438 32.97441101074219 299.7042846679688 L 31.88723754882813 299.07568359375 L 32.97441101074219 300.25830078125 C 34.01675796508789 300.8498229980469 35.17288589477539 301.1456604003906 36.328857421875 301.1456604003906 M 31.88723754882813 299.07568359375 L 3.654770374298096 268.36474609375 L 0.5414771437644958 280.9520263671875 L 31.88723754882813 299.07568359375 M 36.32886505126953 305.1456604003906 C 34.46652984619141 305.1456604003906 32.62390518188477 304.6585998535156 31.00019645690918 303.7371826171875 L 30.45438385009766 303.4274291992188 L 30.02964973449707 302.9654235839844 L 29.35604858398438 302.232666015625 L -1.460696220397949 284.4148864746094 L -4.063349723815918 282.9100646972656 L -3.341509580612183 279.9916381835938 L -0.228216215968132 267.4043579101563 L 1.559757113456726 260.1754455566406 L 6.599530220031738 265.6576538085938 L 34.41844177246094 295.9187316894531 L 34.95934295654297 296.2314758300781 C 35.37882995605469 296.4671020507813 35.85200881958008 296.5915832519531 36.32857131958008 296.591552734375 C 36.80903625488281 296.5915222167969 37.28599548339844 296.4651184082031 37.70783615112305 296.2259826660156 L 40.4832649230957 294.652587890625 L 40.48357391357422 294.6529235839844 L 70.79079437255859 277.4722595214844 L 75.80254364013672 274.6311950683594 L 76.71314239501953 280.3197937011719 L 76.79444885253906 280.8277282714844 L 77.23343658447266 283.5700988769531 L 74.81732940673828 284.9397277832031 L 41.65338516235352 303.739501953125 C 40.03086471557617 304.6593933105469 38.18960952758789 305.1456604003906 36.32886505126953 305.1456604003906 Z" stroke="none" fill="#fff"/></g></g><g transform="translate(299 136.654)"><path d="M0,82.044l.615-.862L29.724,25.951l.061-.585L16.954,1.264a2.381,2.381,0,0,0-4.455.752Z" transform="translate(0 0)" fill="#ffc24a"/><path d="M1.253,82.311l.465-.908,28.8-54.653-12.8-24.2a2.162,2.162,0,0,0-4.114.748Z" transform="translate(-0.89 -0.924)" fill="#ffa712"/><path d="M1.253,82.311l.465-.908,28.8-54.653-12.8-24.2a2.162,2.162,0,0,0-4.114.748Z" transform="translate(-0.89 -0.924)" fill="#ffa000"/><path d="M111.867,78.551l9.554-9.784-9.557-18.244a2.462,2.462,0,0,0-4.338,0L102.42,60.26v.829l9.446,17.462Z" transform="translate(-73.374 -34.954)" fill="#f4bd62"/><path d="M111.923,79.048l9.288-9.513-9.288-17.687a2.139,2.139,0,0,0-3.9-.171l-5.133,9.889-.154.506Z" transform="translate(-73.596 -35.859)" fill="#ffa50e"/><path d="M111.923,79.048l9.288-9.513-9.288-17.687a2.139,2.139,0,0,0-3.9-.171l-5.133,9.889-.154.506Z" transform="translate(-73.596 -35.859)" fill="#ffa000"/><path d="M0,143.9l.279-.281,1.014-.412L38.539,106.1l.472-1.285L29.72,87.1Z" transform="translate(0 -62.778)" fill="#f6820c"/><path d="M39.68,149.924l33.164-18.418-9.47-58.08a2.269,2.269,0,0,0-3.841-1.233L0,131.59l32.974,18.333a6.907,6.907,0,0,0,6.706,0" transform="translate(0 -50.792)" fill="#fde068"/><path d="M73.458,133.285l-9.4-58.835c-.294-1.841-2.155-2.6-3.451-1.283L1.29,133.413,33.9,151.94a6.731,6.731,0,0,0,6.654,0l32.907-18.657Z" transform="translate(-0.916 -53.128)" fill="#fcca3f"/><path d="M39.681,299.706a6.784,6.784,0,0,1-6.706,0L.266,281.26,0,281.545l32.973,18.713a6.784,6.784,0,0,0,6.706,0l33.164-18.8-.081-.508L39.681,299.706Z" transform="translate(-0.001 -201.146)" fill="#eeab37"/></g></g></svg>