<svg xmlns="http://www.w3.org/2000/svg" width="90.281" height="105" viewBox="0 0 90.281 105"><g transform="translate(-413.452 -138.5)"><g transform="translate(416.71 140.78)"><path d="M50.171,98.18,22.84,71.029,37.945,55.66l42.6,42.52Z" transform="translate(0.43 2.04)" fill="#02539a" stroke="#fff" stroke-width="5" fill-rule="evenodd"/><g transform="translate(0.29 0.22)"><path d="M22.52,71.658,49.608,44.57H80.061L37.921,86.71Z" transform="translate(0.122 1.212)" fill="rgba(69,209,253,0.85)" stroke="#fff" stroke-width="5" fill-rule="evenodd"/><path d="M.29,49.7,15.516,64.83,80.473.22H50.167Z" transform="translate(-0.29 -0.22)" fill="#45d1fd" stroke="#fff" stroke-width="5" fill-rule="evenodd"/></g></g><g transform="translate(416.71 140.78)"><path d="M50.171,98.18,22.84,71.029,37.945,55.66l42.6,42.52Z" transform="translate(0.43 2.04)" fill="#02539a" fill-rule="evenodd"/><g transform="translate(0.29 0.22)"><path d="M22.52,71.658,49.608,44.57H80.061L37.921,86.71Z" transform="translate(0.122 1.212)" fill="rgba(69,209,253,0.85)" fill-rule="evenodd"/><path d="M.29,49.7,15.516,64.83,80.473.22H50.167Z" transform="translate(-0.29 -0.22)" fill="#45d1fd" fill-rule="evenodd"/></g></g></g></svg>