<svg xmlns="http://www.w3.org/2000/svg" xmlns:xlink="http://www.w3.org/1999/xlink" width="104.664" height="111.936" viewBox="0 0 104.664 111.936"><defs><linearGradient id="a" y1="0.593" x2="1" y2="1" gradientUnits="objectBoundingBox"><stop offset="0" stop-color="#fe008c"/><stop offset="1" stop-color="#de01ec"/></linearGradient><linearGradient id="b" y1="1" x2="1" y2="0.801" gradientUnits="objectBoundingBox"><stop offset="0" stop-color="#0058ff"/><stop offset="1" stop-color="#0095ff"/></linearGradient><linearGradient id="c" x1="1" x2="0.337" y2="1" gradientUnits="objectBoundingBox"><stop offset="0" stop-color="#9610ff"/><stop offset="1" stop-color="#4501ff"/></linearGradient></defs><g transform="translate(-672.5 -130.98)"><g transform="translate(-16.5 39.5)"><path d="M49.948,0,99.9,50.128H0Z" transform="translate(741.628 97.5) rotate(90)" stroke="#fff" stroke-width="5" fill="url(#a)"/><path d="M24.833,0,49.666,24.486H0Z" transform="translate(766.677 196.934) rotate(-90)" stroke="#fff" stroke-width="5" fill="url(#b)"/><path d="M800.333,173.021l74.11-74.561V148.1L824.8,198.238Z" transform="translate(-83.36 -0.738)" stroke="#fff" stroke-width="5" fill="url(#c)"/></g><g transform="translate(-16.5 39.5)"><path d="M49.948,0,99.9,50.128H0Z" transform="translate(741.628 97.5) rotate(90)" fill="url(#a)"/><path d="M24.833,0,49.666,24.486H0Z" transform="translate(766.677 196.934) rotate(-90)" fill="url(#b)"/><path d="M800.333,173.187,874.607,98.46V148.21L824.857,198.46Z" transform="translate(-83.525 -0.96)" fill="url(#c)"/></g></g></svg>