<svg xmlns="http://www.w3.org/2000/svg" width="106" height="106" viewBox="0 0 106 106"><g transform="translate(-536 -139)"><g transform="translate(539 142)"><g transform="translate(10.722 10.722)"><path d="M80.784,42.278H55.789v7.141H72.928a32.372,32.372,0,0,1-20.71,23.21L11.156,31.566A32.126,32.126,0,0,1,41.506,10.141,32.965,32.965,0,0,1,67.93,23.71l5.356-4.642A39.253,39.253,0,0,0,3.3,33.708L50.433,80.841C67.572,76.557,80.784,60.845,80.784,42.278Z" transform="translate(-2.228 -3)" fill="#fff" stroke="#fff" stroke-width="6"/><path d="M3,14.1A38.176,38.176,0,0,0,14.437,41.262,38.8,38.8,0,0,0,41.6,52.7Z" transform="translate(-3 25.5)" fill="#fff" stroke="#fff" stroke-width="6"/></g><path d="M50,0a50,50,0,1,0,50,50A50.147,50.147,0,0,0,50,0ZM22.143,77.857A38.767,38.767,0,0,1,10.714,50.714L49.643,89.286C39.643,88.929,29.643,85.357,22.143,77.857ZM58.571,88.214,11.786,41.429a39.261,39.261,0,0,1,70-14.643l-5.357,4.643A32.972,32.972,0,0,0,50,17.857,32.483,32.483,0,0,0,19.643,39.286L60.714,80.357A32.378,32.378,0,0,0,81.429,57.143H64.286V50h25A39.4,39.4,0,0,1,58.571,88.214Z" fill="#639" stroke="#fff" stroke-width="6"/></g><g transform="translate(539 142)"><g transform="translate(10.722 10.722)"><path d="M80.784,42.278H55.789v7.141H72.928a32.372,32.372,0,0,1-20.71,23.21L11.156,31.566A32.126,32.126,0,0,1,41.506,10.141,32.965,32.965,0,0,1,67.93,23.71l5.356-4.642A39.253,39.253,0,0,0,3.3,33.708L50.433,80.841C67.572,76.557,80.784,60.845,80.784,42.278Z" transform="translate(-2.228 -3)" fill="#fff"/><path d="M3,14.1A38.176,38.176,0,0,0,14.437,41.262,38.8,38.8,0,0,0,41.6,52.7Z" transform="translate(-3 25.5)" fill="#fff"/></g><path d="M50,0a50,50,0,1,0,50,50A50.147,50.147,0,0,0,50,0ZM22.143,77.857A38.767,38.767,0,0,1,10.714,50.714L49.643,89.286C39.643,88.929,29.643,85.357,22.143,77.857ZM58.571,88.214,11.786,41.429a39.261,39.261,0,0,1,70-14.643l-5.357,4.643A32.972,32.972,0,0,0,50,17.857,32.483,32.483,0,0,0,19.643,39.286L60.714,80.357A32.378,32.378,0,0,0,81.429,57.143H64.286V50h25A39.4,39.4,0,0,1,58.571,88.214Z" fill="#639"/></g></g></svg>