<svg xmlns="http://www.w3.org/2000/svg" width="94.052" height="105" viewBox="0 0 94.052 105"><g transform="translate(-1109.473 -130.5)"><path d="M3114.454,2293.31l35.467-21.04,35.467,21.04-4.208,39.675-34.865,24.045-34.865-24.045v-35.467Z" transform="translate(-1990 -2131)" fill="#fff"/><g transform="translate(1086.26 128.8)"><g transform="translate(30.127 7.431)"><rect width="4.197" height="80.975" transform="matrix(-0.866, -0.5, 0.5, -0.866, 3.634, 72.222)" fill="#e535ab" stroke="#fff" stroke-width="5"/></g><g transform="translate(29.294 72.667)"><g transform="translate(0)"><rect width="81.865" height="4.197" fill="#e535ab" stroke="#fff" stroke-width="5"/></g></g><g transform="translate(30.897 71.676)"><g transform="translate(0)"><rect width="46.77" height="4.197" transform="matrix(-0.866, -0.5, 0.5, -0.866, 40.503, 27.019)" fill="#e535ab" stroke="#fff" stroke-width="5"/></g></g><g transform="translate(66.971 9.729)"><g transform="translate(0)"><rect width="46.77" height="4.197" transform="matrix(-0.866, -0.5, 0.5, -0.866, 40.503, 27.019)" fill="#e535ab" stroke="#fff" stroke-width="5"/></g></g><g transform="translate(30.908 9.713)"><rect width="4.197" height="46.77" transform="matrix(-0.5, -0.866, 0.866, -0.5, 2.098, 27.019)" fill="#e535ab" stroke="#fff" stroke-width="5"/></g><g transform="translate(66.24 7.432)"><g transform="translate(0)"><rect width="80.975" height="4.197" transform="matrix(-0.5, -0.866, 0.866, -0.5, 40.487, 72.222)" fill="#e535ab" stroke="#fff" stroke-width="5"/></g></g><g transform="translate(32.505 30.815)"><rect width="4.197" height="46.77" fill="#e535ab" stroke="#fff" stroke-width="5"/></g><g transform="translate(103.777 30.815)"><rect width="4.197" height="46.77" fill="#e535ab" stroke="#fff" stroke-width="5"/></g><g transform="translate(69.742 73.406)"><rect width="3.666" height="40.677" transform="matrix(-0.5, -0.866, 0.866, -0.5, 1.833, 23.513)" fill="#e535ab" stroke="#fff" stroke-width="5"/></g><path d="M320.813,258.777a8.829,8.829,0,1,1-3.236-12.059,8.837,8.837,0,0,1,3.236,12.059" transform="translate(-207.277 -179.577)" fill="#e535ab" stroke="#fff" stroke-width="5"/><path d="M42.213,97.877a8.829,8.829,0,1,1-3.236-12.059,8.837,8.837,0,0,1,3.236,12.059" transform="translate(0 -59.854)" fill="#e535ab" stroke="#fff" stroke-width="5"/><path d="M27.018,258.777a8.829,8.829,0,1,1,12.059,3.236,8.843,8.843,0,0,1-12.059-3.236" transform="translate(-0.075 -179.577)" fill="#e535ab" stroke="#fff" stroke-width="5"/><path d="M305.618,97.877a8.829,8.829,0,1,1,12.059,3.236,8.843,8.843,0,0,1-12.059-3.236" transform="translate(-207.352 -59.854)" fill="#e535ab" stroke="#fff" stroke-width="5"/><path d="M173.923,343.646a8.823,8.823,0,1,1,8.823-8.823,8.815,8.815,0,0,1-8.823,8.823" transform="translate(-103.684 -239.446)" fill="#e535ab" stroke="#fff" stroke-width="5"/><path d="M173.923,21.846a8.823,8.823,0,1,1,8.823-8.823,8.815,8.815,0,0,1-8.823,8.823" transform="translate(-103.684)" fill="#e535ab" stroke="#fff" stroke-width="5"/></g><g transform="translate(1086.26 128.8)"><g transform="translate(30.127 7.431)"><rect width="4.197" height="80.975" transform="matrix(-0.866, -0.5, 0.5, -0.866, 3.634, 72.222)" fill="#e535ab"/></g><g transform="translate(29.294 72.667)"><g transform="translate(0)"><rect width="81.865" height="4.197" fill="#e535ab"/></g></g><g transform="translate(30.897 71.676)"><g transform="translate(0)"><rect width="46.77" height="4.197" transform="matrix(-0.866, -0.5, 0.5, -0.866, 40.503, 27.019)" fill="#e535ab"/></g></g><g transform="translate(66.971 9.729)"><g transform="translate(0)"><rect width="46.77" height="4.197" transform="matrix(-0.866, -0.5, 0.5, -0.866, 40.503, 27.019)" fill="#e535ab"/></g></g><g transform="translate(30.908 9.713)"><rect width="4.197" height="46.77" transform="matrix(-0.5, -0.866, 0.866, -0.5, 2.098, 27.019)" fill="#e535ab"/></g><g transform="translate(66.24 7.432)"><g transform="translate(0)"><rect width="80.975" height="4.197" transform="matrix(-0.5, -0.866, 0.866, -0.5, 40.487, 72.222)" fill="#e535ab"/></g></g><g transform="translate(32.505 30.815)"><rect width="4.197" height="46.77" fill="#e535ab"/></g><g transform="translate(103.777 30.815)"><rect width="4.197" height="46.77" fill="#e535ab"/></g><g transform="translate(69.742 73.406)"><rect width="3.666" height="40.677" transform="matrix(-0.5, -0.866, 0.866, -0.5, 1.833, 23.513)" fill="#e535ab"/></g><path d="M320.813,258.777a8.829,8.829,0,1,1-3.236-12.059,8.837,8.837,0,0,1,3.236,12.059" transform="translate(-207.277 -179.577)" fill="#e535ab"/><path d="M42.213,97.877a8.829,8.829,0,1,1-3.236-12.059,8.837,8.837,0,0,1,3.236,12.059" transform="translate(0 -59.854)" fill="#e535ab"/><path d="M27.018,258.777a8.829,8.829,0,1,1,12.059,3.236,8.843,8.843,0,0,1-12.059-3.236" transform="translate(-0.075 -179.577)" fill="#e535ab"/><path d="M305.618,97.877a8.829,8.829,0,1,1,12.059,3.236,8.843,8.843,0,0,1-12.059-3.236" transform="translate(-207.352 -59.854)" fill="#e535ab"/><path d="M173.923,343.646a8.823,8.823,0,1,1,8.823-8.823,8.815,8.815,0,0,1-8.823,8.823" transform="translate(-103.684 -239.446)" fill="#e535ab"/><path d="M173.923,21.846a8.823,8.823,0,1,1,8.823-8.823,8.815,8.815,0,0,1-8.823,8.823" transform="translate(-103.684)" fill="#e535ab"/></g></g></svg>