<svg xmlns="http://www.w3.org/2000/svg" width="93.652" height="105.094" viewBox="0 0 93.652 105.094"><g transform="translate(-154.267 -134.6)"><g transform="translate(82.4 108)"><path d="M82.621,190.634,74.6,100.6h88.187l-8.021,89.985L118.62,200.6Z" transform="translate(0 -71.5)" fill="#e44d26" stroke="#fff" stroke-width="5"/><path d="M256,215.892V131h36.2l-6.907,76.755" transform="translate(-137.487 -94.48)" fill="#f16529" stroke="#fff" stroke-width="5"/><path d="M142,176.3h27.824v11.008H154.155l1.025,11.275h14.644v10.984h-24.8m.488,5.528h11.13l.781,8.8,12.4,3.3v11.493l-22.747-6.3" transform="translate(-51.048 -128.724)" fill="#ebebeb" stroke="#fff" stroke-width="5"/><path d="M283.575,176.3H255.8v11.008h26.75m-1,11.275H255.8v11.008h13.668L268.174,223.9,255.8,227.2V238.64l22.7-6.256" transform="translate(-137.238 -128.724)" fill="#fff" stroke="#fff" stroke-width="5"/></g><g transform="translate(82.4 108)"><path d="M82.621,190.634,74.6,100.6h88.187l-8.021,89.985L118.62,200.6" transform="translate(0 -71.5)" fill="#e44d26"/><path d="M256,215.892V131h36.2l-6.907,76.755" transform="translate(-137.487 -94.48)" fill="#f16529"/><path d="M142,176.3h27.824v11.008H154.155l1.025,11.275h14.644v10.984h-24.8m.488,5.528h11.13l.781,8.8,12.4,3.3v11.493l-22.747-6.3" transform="translate(-51.048 -128.724)" fill="#ebebeb"/><path d="M283.575,176.3H255.8v11.008h26.75m-1,11.275H255.8v11.008h13.668L268.174,223.9,255.8,227.2V238.64l22.7-6.256" transform="translate(-137.238 -128.724)" fill="#fff"/></g></g></svg>