<svg xmlns="http://www.w3.org/2000/svg" width="93.687" height="105.131" viewBox="0 0 93.687 105.131"><g transform="translate(-970.773 -139.275)"><path d="M2969.119,2297.7l38.38-22.2,40.229,25.433v46.7L3007.5,2374l-13.612-4.892-26.066-15.381Z" transform="translate(-1990 -2131)" fill="#fff"/><g transform="translate(803 -20)"><path d="M214.634,261.907a7.71,7.71,0,0,1-3.842-1.027l-12.231-7.242c-1.827-1.022-.935-1.383-.333-1.591a24.69,24.69,0,0,0,5.53-2.522.928.928,0,0,1,.911.064l9.4,5.577a1.239,1.239,0,0,0,1.135,0l36.636-21.151a1.155,1.155,0,0,0,.559-.991V190.737a1.177,1.177,0,0,0-.567-1.009L215.207,168.6a1.127,1.127,0,0,0-1.128,0l-36.614,21.133a1.168,1.168,0,0,0-.581,1v42.284a1.129,1.129,0,0,0,.569.981l10.032,5.8c5.447,2.724,8.776-.486,8.776-3.715V194.342a1.045,1.045,0,0,1,1.064-1.055h4.64a1.049,1.049,0,0,1,1.055,1.055v41.752c0,7.264-3.962,11.438-10.849,11.438-2.118,0-3.787,0-8.446-2.293l-9.611-5.54a7.749,7.749,0,0,1-3.842-6.687V190.728a7.7,7.7,0,0,1,3.842-6.677l36.673-21.161a8.032,8.032,0,0,1,7.7,0l36.627,21.17a7.731,7.731,0,0,1,3.842,6.677v42.284a7.753,7.753,0,0,1-3.842,6.677L218.491,260.86a7.7,7.7,0,0,1-3.861,1.027" fill="#689f63" stroke="#fff" stroke-width="5"/><path d="M229.255,234.577c-16.048,0-19.413-7.367-19.413-13.546a1.055,1.055,0,0,1,1.062-1.056h4.737a1.061,1.061,0,0,1,1.047.9c.716,4.827,2.846,7.262,12.55,7.262,7.73,0,11.017-1.746,11.017-5.846,0-2.36-.936-4.113-12.945-5.288-10.044-.992-16.25-3.2-16.25-11.237,0-7.4,6.243-11.807,16.7-11.807,11.742,0,17.563,4.076,18.3,12.835a1.069,1.069,0,0,1-.285.817,1.092,1.092,0,0,1-.78.34h-4.765a1.053,1.053,0,0,1-1.028-.826c-1.148-5.077-3.92-6.7-11.458-6.7-8.437,0-9.42,2.938-9.42,5.141,0,2.672,1.157,3.452,12.541,4.958,11.274,1.5,16.627,3.608,16.627,11.531,0,7.987-6.665,12.569-18.288,12.569" transform="translate(-3.343 -1.778)" fill="#689f63" stroke="#fff" stroke-width="5"/><path d="M214.634,261.907a7.71,7.71,0,0,1-3.842-1.027l-12.231-7.242c-1.827-1.022-.935-1.383-.333-1.591a24.69,24.69,0,0,0,5.53-2.522.928.928,0,0,1,.911.064l9.4,5.577a1.239,1.239,0,0,0,1.135,0l36.636-21.151a1.155,1.155,0,0,0,.559-.991V190.737a1.177,1.177,0,0,0-.567-1.009L215.207,168.6a1.127,1.127,0,0,0-1.128,0l-36.614,21.133a1.168,1.168,0,0,0-.581,1v42.284a1.129,1.129,0,0,0,.569.981l10.032,5.8c5.447,2.724,8.776-.486,8.776-3.715V194.342a1.045,1.045,0,0,1,1.064-1.055h4.64a1.049,1.049,0,0,1,1.055,1.055v41.752c0,7.264-3.962,11.438-10.849,11.438-2.118,0-3.787,0-8.446-2.293l-9.611-5.54a7.749,7.749,0,0,1-3.842-6.687V190.728a7.7,7.7,0,0,1,3.842-6.677l36.673-21.161a8.032,8.032,0,0,1,7.7,0l36.627,21.17a7.731,7.731,0,0,1,3.842,6.677v42.284a7.753,7.753,0,0,1-3.842,6.677L218.491,260.86a7.7,7.7,0,0,1-3.861,1.027" fill="#689f63" stroke="#fff" stroke-width="5"/></g><g transform="translate(803 -20)"><path d="M214.634,261.907a7.71,7.71,0,0,1-3.842-1.027l-12.231-7.242c-1.827-1.022-.935-1.383-.333-1.591a24.69,24.69,0,0,0,5.53-2.522.928.928,0,0,1,.911.064l9.4,5.577a1.239,1.239,0,0,0,1.135,0l36.636-21.151a1.155,1.155,0,0,0,.559-.991V190.737a1.177,1.177,0,0,0-.567-1.009L215.207,168.6a1.127,1.127,0,0,0-1.128,0l-36.614,21.133a1.168,1.168,0,0,0-.581,1v42.284a1.129,1.129,0,0,0,.569.981l10.032,5.8c5.447,2.724,8.776-.486,8.776-3.715V194.342a1.045,1.045,0,0,1,1.064-1.055h4.64a1.049,1.049,0,0,1,1.055,1.055v41.752c0,7.264-3.962,11.438-10.849,11.438-2.118,0-3.787,0-8.446-2.293l-9.611-5.54a7.749,7.749,0,0,1-3.842-6.687V190.728a7.7,7.7,0,0,1,3.842-6.677l36.673-21.161a8.032,8.032,0,0,1,7.7,0l36.627,21.17a7.731,7.731,0,0,1,3.842,6.677v42.284a7.753,7.753,0,0,1-3.842,6.677L218.491,260.86a7.7,7.7,0,0,1-3.861,1.027" fill="#689f63"/><path d="M229.255,234.577c-16.048,0-19.413-7.367-19.413-13.546a1.055,1.055,0,0,1,1.062-1.056h4.737a1.061,1.061,0,0,1,1.047.9c.716,4.827,2.846,7.262,12.55,7.262,7.73,0,11.017-1.746,11.017-5.846,0-2.36-.936-4.113-12.945-5.288-10.044-.992-16.25-3.2-16.25-11.237,0-7.4,6.243-11.807,16.7-11.807,11.742,0,17.563,4.076,18.3,12.835a1.069,1.069,0,0,1-.285.817,1.092,1.092,0,0,1-.78.34h-4.765a1.053,1.053,0,0,1-1.028-.826c-1.148-5.077-3.92-6.7-11.458-6.7-8.437,0-9.42,2.938-9.42,5.141,0,2.672,1.157,3.452,12.541,4.958,11.274,1.5,16.627,3.608,16.627,11.531,0,7.987-6.665,12.569-18.288,12.569" transform="translate(-3.343 -1.778)" fill="#689f63"/><path d="M214.634,261.907a7.71,7.71,0,0,1-3.842-1.027l-12.231-7.242c-1.827-1.022-.935-1.383-.333-1.591a24.69,24.69,0,0,0,5.53-2.522.928.928,0,0,1,.911.064l9.4,5.577a1.239,1.239,0,0,0,1.135,0l36.636-21.151a1.155,1.155,0,0,0,.559-.991V190.737a1.177,1.177,0,0,0-.567-1.009L215.207,168.6a1.127,1.127,0,0,0-1.128,0l-36.614,21.133a1.168,1.168,0,0,0-.581,1v42.284a1.129,1.129,0,0,0,.569.981l10.032,5.8c5.447,2.724,8.776-.486,8.776-3.715V194.342a1.045,1.045,0,0,1,1.064-1.055h4.64a1.049,1.049,0,0,1,1.055,1.055v41.752c0,7.264-3.962,11.438-10.849,11.438-2.118,0-3.787,0-8.446-2.293l-9.611-5.54a7.749,7.749,0,0,1-3.842-6.687V190.728a7.7,7.7,0,0,1,3.842-6.677l36.673-21.161a8.032,8.032,0,0,1,7.7,0l36.627,21.17a7.731,7.731,0,0,1,3.842,6.677v42.284a7.753,7.753,0,0,1-3.842,6.677L218.491,260.86a7.7,7.7,0,0,1-3.861,1.027" fill="#689f63"/></g></g></svg>