<svg xmlns="http://www.w3.org/2000/svg" width="117.291" height="105" viewBox="0 0 117.291 105"><g transform="translate(-1232.5 -130.5)"><path d="M3232.223,2307.618l18.521-12.207,1.052-26.73h15.785l12.418,10.1,20.205-12.418,8.208,2.315,2.947,15.154,2.1,13.891,18.522,9.892,1.263,9.471-12.839,9.682-9.05,5.051v24.625l-2.947,4.841-17.68-4.841-9.682-8.208-18.311,13.049h-6.1l-7.577-6.735,1.684-12.418-1.684-10.313-9.682-5.051-10.313-8.208v-8Z" transform="translate(-1990 -2131)" fill="#fff"/><g transform="translate(1059.3 55)"><path d="M287.991,128.011c0-7.439-9.316-14.488-23.6-18.86,3.3-14.557,1.831-26.139-4.623-29.847a10.035,10.035,0,0,0-5.127-1.282v5.1a5.3,5.3,0,0,1,2.609.6c3.113,1.785,4.463,8.583,3.41,17.327-.252,2.152-.664,4.417-1.167,6.729a110.924,110.924,0,0,0-14.534-2.495,111.647,111.647,0,0,0-9.522-11.444C242.9,86.9,249.9,83.1,254.666,83.1V78h0c-6.294,0-14.534,4.486-22.866,12.268-8.331-7.736-16.571-12.177-22.866-12.177v5.1c4.738,0,11.765,3.777,19.226,10.666a108.107,108.107,0,0,0-9.453,11.421,106.885,106.885,0,0,0-14.557,2.518c-.526-2.289-.916-4.509-1.19-6.638-1.076-8.743.252-15.541,3.342-17.35a5.094,5.094,0,0,1,2.632-.6v-5.1h0a10.206,10.206,0,0,0-5.173,1.282c-6.432,3.708-7.874,15.267-4.555,29.778C184.97,113.569,175.7,120.6,175.7,128.011c0,7.439,9.316,14.488,23.6,18.86-3.3,14.557-1.831,26.139,4.623,29.847a10.062,10.062,0,0,0,5.15,1.282c6.294,0,14.534-4.486,22.866-12.268,8.331,7.736,16.571,12.177,22.866,12.177a10.205,10.205,0,0,0,5.173-1.282c6.432-3.708,7.874-15.267,4.555-29.778C278.721,142.477,287.991,135.427,287.991,128.011Zm-29.8-15.267c-.847,2.953-1.9,6-3.09,9.041-.938-1.831-1.923-3.662-3-5.493-1.053-1.831-2.174-3.616-3.3-5.356C252.056,111.417,255.192,112.012,258.19,112.745Zm-10.483,24.376c-1.785,3.09-3.616,6.02-5.516,8.743-3.41.3-6.867.458-10.346.458-3.456,0-6.912-.16-10.3-.435q-2.85-4.086-5.539-8.7-2.609-4.5-4.761-9.11c1.419-3.067,3.021-6.134,4.738-9.133,1.785-3.09,3.616-6.02,5.516-8.743,3.41-.3,6.867-.458,10.346-.458,3.456,0,6.912.16,10.3.435q2.85,4.086,5.539,8.7,2.609,4.5,4.761,9.11C251,131.056,249.424,134.123,247.707,137.121Zm7.393-2.976c1.236,3.067,2.289,6.134,3.159,9.11-3,.732-6.157,1.35-9.43,1.831,1.122-1.762,2.243-3.571,3.3-5.425C253.178,137.831,254.162,135.977,255.1,134.146Zm-23.209,24.422a94.36,94.36,0,0,1-6.363-7.324c2.06.092,4.166.16,6.294.16,2.152,0,4.28-.046,6.363-.16A89.342,89.342,0,0,1,231.891,158.568Zm-17.029-13.481c-3.25-.481-6.386-1.076-9.384-1.808.847-2.953,1.9-6,3.09-9.041.938,1.831,1.923,3.662,3,5.493S213.741,143.347,214.862,145.086Zm16.915-47.631a94.36,94.36,0,0,1,6.363,7.324c-2.06-.092-4.166-.16-6.294-.16-2.152,0-4.28.046-6.363.16A89.336,89.336,0,0,1,231.777,97.455Zm-16.937,13.481c-1.122,1.762-2.243,3.571-3.3,5.425-1.053,1.831-2.037,3.662-2.976,5.493-1.236-3.067-2.289-6.134-3.159-9.11C208.408,112.035,211.566,111.417,214.839,110.937Zm-20.714,28.656c-8.1-3.456-13.344-7.988-13.344-11.582s5.241-8.148,13.344-11.582c1.968-.847,4.12-1.6,6.34-2.312a109.93,109.93,0,0,0,5.15,13.939,108.382,108.382,0,0,0-5.081,13.87C198.268,141.218,196.117,140.44,194.125,139.593ZM206.439,172.3c-3.113-1.785-4.463-8.583-3.41-17.327.252-2.152.664-4.417,1.167-6.729a110.922,110.922,0,0,0,14.534,2.495,111.653,111.653,0,0,0,9.522,11.444c-7.462,6.935-14.466,10.735-19.226,10.735A5.462,5.462,0,0,1,206.439,172.3Zm54.292-17.441c1.076,8.743-.252,15.541-3.342,17.35a5.094,5.094,0,0,1-2.632.6c-4.738,0-11.765-3.777-19.226-10.666a108.106,108.106,0,0,0,9.453-11.421,106.885,106.885,0,0,0,14.557-2.518A64.077,64.077,0,0,1,260.731,154.86Zm8.812-15.267c-1.968.847-4.12,1.6-6.34,2.312a109.928,109.928,0,0,0-5.15-13.939,108.382,108.382,0,0,0,5.081-13.87c2.266.71,4.417,1.488,6.432,2.335,8.1,3.456,13.344,7.988,13.344,11.582C282.887,131.6,277.646,136.16,269.543,139.593Z" fill="#61dafb" stroke="#fff" stroke-width="5"/><path d="M320.8,78.4Z" transform="translate(-111.889 -0.307)" fill="#61dafb" stroke="#fff" stroke-width="5"/><circle cx="10.573" cy="10.573" r="10.573" transform="translate(221.25 117.438)" fill="#61dafb" stroke="#fff" stroke-width="5"/><path d="M520.5,78.1Z" transform="translate(-265.88 -0.077)" fill="#61dafb" stroke="#fff" stroke-width="5"/></g><g transform="translate(1059.3 55)"><path d="M287.991,128.011c0-7.439-9.316-14.488-23.6-18.86,3.3-14.557,1.831-26.139-4.623-29.847a10.035,10.035,0,0,0-5.127-1.282v5.1a5.3,5.3,0,0,1,2.609.6c3.113,1.785,4.463,8.583,3.41,17.327-.252,2.152-.664,4.417-1.167,6.729a110.924,110.924,0,0,0-14.534-2.495,111.647,111.647,0,0,0-9.522-11.444C242.9,86.9,249.9,83.1,254.666,83.1V78h0c-6.294,0-14.534,4.486-22.866,12.268-8.331-7.736-16.571-12.177-22.866-12.177v5.1c4.738,0,11.765,3.777,19.226,10.666a108.107,108.107,0,0,0-9.453,11.421,106.885,106.885,0,0,0-14.557,2.518c-.526-2.289-.916-4.509-1.19-6.638-1.076-8.743.252-15.541,3.342-17.35a5.094,5.094,0,0,1,2.632-.6v-5.1h0a10.206,10.206,0,0,0-5.173,1.282c-6.432,3.708-7.874,15.267-4.555,29.778C184.97,113.569,175.7,120.6,175.7,128.011c0,7.439,9.316,14.488,23.6,18.86-3.3,14.557-1.831,26.139,4.623,29.847a10.062,10.062,0,0,0,5.15,1.282c6.294,0,14.534-4.486,22.866-12.268,8.331,7.736,16.571,12.177,22.866,12.177a10.205,10.205,0,0,0,5.173-1.282c6.432-3.708,7.874-15.267,4.555-29.778C278.721,142.477,287.991,135.427,287.991,128.011Zm-29.8-15.267c-.847,2.953-1.9,6-3.09,9.041-.938-1.831-1.923-3.662-3-5.493-1.053-1.831-2.174-3.616-3.3-5.356C252.056,111.417,255.192,112.012,258.19,112.745Zm-10.483,24.376c-1.785,3.09-3.616,6.02-5.516,8.743-3.41.3-6.867.458-10.346.458-3.456,0-6.912-.16-10.3-.435q-2.85-4.086-5.539-8.7-2.609-4.5-4.761-9.11c1.419-3.067,3.021-6.134,4.738-9.133,1.785-3.09,3.616-6.02,5.516-8.743,3.41-.3,6.867-.458,10.346-.458,3.456,0,6.912.16,10.3.435q2.85,4.086,5.539,8.7,2.609,4.5,4.761,9.11C251,131.056,249.424,134.123,247.707,137.121Zm7.393-2.976c1.236,3.067,2.289,6.134,3.159,9.11-3,.732-6.157,1.35-9.43,1.831,1.122-1.762,2.243-3.571,3.3-5.425C253.178,137.831,254.162,135.977,255.1,134.146Zm-23.209,24.422a94.36,94.36,0,0,1-6.363-7.324c2.06.092,4.166.16,6.294.16,2.152,0,4.28-.046,6.363-.16A89.342,89.342,0,0,1,231.891,158.568Zm-17.029-13.481c-3.25-.481-6.386-1.076-9.384-1.808.847-2.953,1.9-6,3.09-9.041.938,1.831,1.923,3.662,3,5.493S213.741,143.347,214.862,145.086Zm16.915-47.631a94.36,94.36,0,0,1,6.363,7.324c-2.06-.092-4.166-.16-6.294-.16-2.152,0-4.28.046-6.363.16A89.336,89.336,0,0,1,231.777,97.455Zm-16.937,13.481c-1.122,1.762-2.243,3.571-3.3,5.425-1.053,1.831-2.037,3.662-2.976,5.493-1.236-3.067-2.289-6.134-3.159-9.11C208.408,112.035,211.566,111.417,214.839,110.937Zm-20.714,28.656c-8.1-3.456-13.344-7.988-13.344-11.582s5.241-8.148,13.344-11.582c1.968-.847,4.12-1.6,6.34-2.312a109.93,109.93,0,0,0,5.15,13.939,108.382,108.382,0,0,0-5.081,13.87C198.268,141.218,196.117,140.44,194.125,139.593ZM206.439,172.3c-3.113-1.785-4.463-8.583-3.41-17.327.252-2.152.664-4.417,1.167-6.729a110.922,110.922,0,0,0,14.534,2.495,111.653,111.653,0,0,0,9.522,11.444c-7.462,6.935-14.466,10.735-19.226,10.735A5.462,5.462,0,0,1,206.439,172.3Zm54.292-17.441c1.076,8.743-.252,15.541-3.342,17.35a5.094,5.094,0,0,1-2.632.6c-4.738,0-11.765-3.777-19.226-10.666a108.106,108.106,0,0,0,9.453-11.421,106.885,106.885,0,0,0,14.557-2.518A64.077,64.077,0,0,1,260.731,154.86Zm8.812-15.267c-1.968.847-4.12,1.6-6.34,2.312a109.928,109.928,0,0,0-5.15-13.939,108.382,108.382,0,0,0,5.081-13.87c2.266.71,4.417,1.488,6.432,2.335,8.1,3.456,13.344,7.988,13.344,11.582C282.887,131.6,277.646,136.16,269.543,139.593Z" fill="#61dafb"/><path d="M320.8,78.4Z" transform="translate(-111.889 -0.307)" fill="#61dafb"/><circle cx="10.573" cy="10.573" r="10.573" transform="translate(221.25 117.438)" fill="#61dafb"/><path d="M520.5,78.1Z" transform="translate(-265.88 -0.077)" fill="#61dafb"/></g></g></svg>