<svg xmlns="http://www.w3.org/2000/svg" width="88.376" height="105.119" viewBox="0 0 88.376 105.119"><g transform="translate(-1626.449 -112.44)"><g transform="translate(1605.987 101.415)"><path d="M100.908,26.821C91.616,13.509,73.3,9.578,59.989,18.066L36.76,32.9A26.756,26.756,0,0,0,24.7,50.765a28.074,28.074,0,0,0,2.77,18.047,27.127,27.127,0,0,0-4.02,10.006,28.485,28.485,0,0,0,4.914,21.531c9.292,13.312,27.607,17.243,40.919,8.756L92.6,94.275A26.756,26.756,0,0,0,104.66,76.406a28.664,28.664,0,0,0-2.77-18.047,27.127,27.127,0,0,0,4.02-10.006,29.019,29.019,0,0,0-5-21.531" transform="translate(0 0)" fill="#159497" stroke="#fff" stroke-width="5"/><path d="M59.151,103.048a18.45,18.45,0,0,1-19.834-7.326,17.125,17.125,0,0,1-2.948-12.955,18.8,18.8,0,0,1,.536-2.144l.447-1.34,1.161.893a31.139,31.139,0,0,0,9.113,4.556l.893.268-.089.893a5.075,5.075,0,0,0,.983,3.4A5.772,5.772,0,0,0,55.4,91.523a6.916,6.916,0,0,0,1.429-.625L80.057,76.066A4.5,4.5,0,0,0,82.2,72.85a5.2,5.2,0,0,0-.893-3.931,5.772,5.772,0,0,0-5.986-2.234,6.916,6.916,0,0,0-1.429.625l-8.934,5.629a17.291,17.291,0,0,1-4.735,2.055,18.451,18.451,0,0,1-19.834-7.326A16.7,16.7,0,0,1,37.53,54.714,16.07,16.07,0,0,1,44.767,43.9l23.408-14.92a17.291,17.291,0,0,1,4.735-2.055,18.451,18.451,0,0,1,19.834,7.326,17.125,17.125,0,0,1,2.948,12.955l-.536,2.144-.447,1.34L93.548,49.8a29.092,29.092,0,0,0-9.113-4.556l-.893-.268.089-.893a5.319,5.319,0,0,0-.983-3.484,5.571,5.571,0,0,0-5.986-2.144,6.916,6.916,0,0,0-1.429.625L51.914,54a4.891,4.891,0,0,0-2.234,3.216,5.2,5.2,0,0,0,.893,3.931A5.714,5.714,0,0,0,56.56,63.38a6.916,6.916,0,0,0,1.429-.625l8.934-5.629a17.291,17.291,0,0,1,4.735-2.055A18.451,18.451,0,0,1,91.493,62.4a17.125,17.125,0,0,1,2.948,12.955A16.07,16.07,0,0,1,87.2,86.162L63.886,100.993a17.291,17.291,0,0,1-4.735,2.055" transform="translate(-1.396 -1.358)" fill="#fff" stroke="#fff" stroke-width="5"/></g><g transform="translate(1605.987 101.415)"><path d="M100.908,26.821C91.616,13.509,73.3,9.578,59.989,18.066L36.76,32.9A26.756,26.756,0,0,0,24.7,50.765a28.074,28.074,0,0,0,2.77,18.047,27.127,27.127,0,0,0-4.02,10.006,28.485,28.485,0,0,0,4.914,21.531c9.292,13.312,27.607,17.243,40.919,8.756L92.6,94.275A26.756,26.756,0,0,0,104.66,76.406a28.664,28.664,0,0,0-2.77-18.047,27.127,27.127,0,0,0,4.02-10.006,29.019,29.019,0,0,0-5-21.531" transform="translate(0 0)" fill="#159497"/><path d="M59.151,103.048a18.45,18.45,0,0,1-19.834-7.326,17.125,17.125,0,0,1-2.948-12.955,18.8,18.8,0,0,1,.536-2.144l.447-1.34,1.161.893a31.139,31.139,0,0,0,9.113,4.556l.893.268-.089.893a5.075,5.075,0,0,0,.983,3.4A5.772,5.772,0,0,0,55.4,91.523a6.916,6.916,0,0,0,1.429-.625L80.057,76.066A4.5,4.5,0,0,0,82.2,72.85a5.2,5.2,0,0,0-.893-3.931,5.772,5.772,0,0,0-5.986-2.234,6.916,6.916,0,0,0-1.429.625l-8.934,5.629a17.291,17.291,0,0,1-4.735,2.055,18.451,18.451,0,0,1-19.834-7.326A16.7,16.7,0,0,1,37.53,54.714,16.07,16.07,0,0,1,44.767,43.9l23.408-14.92a17.291,17.291,0,0,1,4.735-2.055,18.451,18.451,0,0,1,19.834,7.326,17.125,17.125,0,0,1,2.948,12.955l-.536,2.144-.447,1.34L93.548,49.8a29.092,29.092,0,0,0-9.113-4.556l-.893-.268.089-.893a5.319,5.319,0,0,0-.983-3.484,5.571,5.571,0,0,0-5.986-2.144,6.916,6.916,0,0,0-1.429.625L51.914,54a4.891,4.891,0,0,0-2.234,3.216,5.2,5.2,0,0,0,.893,3.931A5.714,5.714,0,0,0,56.56,63.38a6.916,6.916,0,0,0,1.429-.625l8.934-5.629a17.291,17.291,0,0,1,4.735-2.055A18.451,18.451,0,0,1,91.493,62.4a17.125,17.125,0,0,1,2.948,12.955A16.07,16.07,0,0,1,87.2,86.162L63.886,100.993a17.291,17.291,0,0,1-4.735,2.055" transform="translate(-1.396 -1.358)" fill="#fff"/></g></g></svg>