<svg xmlns="http://www.w3.org/2000/svg" width="88.34" height="105.12" viewBox="0 0 88.34 105.12"><g transform="translate(-1513.451 -112.44)"><g transform="translate(1493.024 101.423)"><path d="M100.912,26.808c-9.289-13.291-27.636-17.23-40.9-8.78L36.717,32.873A26.707,26.707,0,0,0,24.641,50.737,28.163,28.163,0,0,0,27.41,68.815,26.743,26.743,0,0,0,23.417,78.8a28.458,28.458,0,0,0,4.868,21.544c9.289,13.291,27.636,17.23,40.9,8.78L92.48,94.343a26.8,26.8,0,0,0,12.076-17.864,28.154,28.154,0,0,0-2.778-18.07,26.912,26.912,0,0,0,4-9.986,28.493,28.493,0,0,0-4.868-21.544" transform="translate(0)" fill="#ff3e00" stroke="#fff" stroke-width="5"/><path d="M59.237,103.253a18.609,18.609,0,0,1-19.954-7.394,17.139,17.139,0,0,1-2.934-13,15.222,15.222,0,0,1,.556-2.16l.44-1.344,1.2.9a30.32,30.32,0,0,0,9.125,4.535l.9.26-.081.9a5.283,5.283,0,0,0,.978,3.45,5.611,5.611,0,0,0,6.011,2.223,5.252,5.252,0,0,0,1.436-.627L80.277,76.1a4.857,4.857,0,0,0,2.2-3.262,5.167,5.167,0,0,0-.9-3.916A5.611,5.611,0,0,0,75.566,66.7a5.135,5.135,0,0,0-1.436.627l-8.972,5.691a17.146,17.146,0,0,1-4.746,2.079,18.6,18.6,0,0,1-19.918-7.385,17.157,17.157,0,0,1-2.916-13,16.131,16.131,0,0,1,7.294-10.808l23.435-14.9a17.1,17.1,0,0,1,4.719-2.079,18.592,18.592,0,0,1,19.945,7.394,17.139,17.139,0,0,1,2.943,13,18.039,18.039,0,0,1-.556,2.178l-.449,1.344-1.193-.9a30.321,30.321,0,0,0-9.152-4.571l-.9-.26.081-.9a5.248,5.248,0,0,0-.951-3.477,5.593,5.593,0,0,0-5.975-2.16,5.135,5.135,0,0,0-1.436.627L51.979,54.077a4.884,4.884,0,0,0-2.2,3.253,5.229,5.229,0,0,0,.9,3.925,5.611,5.611,0,0,0,5.966,2.223,5.386,5.386,0,0,0,1.436-.627l8.972-5.682a16.706,16.706,0,0,1,4.755-2.088,18.583,18.583,0,0,1,19.945,7.385,17.157,17.157,0,0,1,2.943,13A16.131,16.131,0,0,1,87.4,86.27l-23.408,14.9a17.218,17.218,0,0,1-4.755,2.088" transform="translate(-1.534 -1.493)" fill="#fff" stroke="#fff" stroke-width="5"/></g><g transform="translate(1493.024 101.423)"><path d="M100.912,26.808c-9.289-13.291-27.636-17.23-40.9-8.78L36.717,32.873A26.707,26.707,0,0,0,24.641,50.737,28.163,28.163,0,0,0,27.41,68.815,26.743,26.743,0,0,0,23.417,78.8a28.458,28.458,0,0,0,4.868,21.544c9.289,13.291,27.636,17.23,40.9,8.78L92.48,94.343a26.8,26.8,0,0,0,12.076-17.864,28.154,28.154,0,0,0-2.778-18.07,26.912,26.912,0,0,0,4-9.986,28.493,28.493,0,0,0-4.868-21.544" transform="translate(0)" fill="#ff3e00"/><path d="M59.237,103.253a18.609,18.609,0,0,1-19.954-7.394,17.139,17.139,0,0,1-2.934-13,15.222,15.222,0,0,1,.556-2.16l.44-1.344,1.2.9a30.32,30.32,0,0,0,9.125,4.535l.9.26-.081.9a5.283,5.283,0,0,0,.978,3.45,5.611,5.611,0,0,0,6.011,2.223,5.252,5.252,0,0,0,1.436-.627L80.277,76.1a4.857,4.857,0,0,0,2.2-3.262,5.167,5.167,0,0,0-.9-3.916A5.611,5.611,0,0,0,75.566,66.7a5.135,5.135,0,0,0-1.436.627l-8.972,5.691a17.146,17.146,0,0,1-4.746,2.079,18.6,18.6,0,0,1-19.918-7.385,17.157,17.157,0,0,1-2.916-13,16.131,16.131,0,0,1,7.294-10.808l23.435-14.9a17.1,17.1,0,0,1,4.719-2.079,18.592,18.592,0,0,1,19.945,7.394,17.139,17.139,0,0,1,2.943,13,18.039,18.039,0,0,1-.556,2.178l-.449,1.344-1.193-.9a30.321,30.321,0,0,0-9.152-4.571l-.9-.26.081-.9a5.248,5.248,0,0,0-.951-3.477,5.593,5.593,0,0,0-5.975-2.16,5.135,5.135,0,0,0-1.436.627L51.979,54.077a4.884,4.884,0,0,0-2.2,3.253,5.229,5.229,0,0,0,.9,3.925,5.611,5.611,0,0,0,5.966,2.223,5.386,5.386,0,0,0,1.436-.627l8.972-5.682a16.706,16.706,0,0,1,4.755-2.088,18.583,18.583,0,0,1,19.945,7.385,17.157,17.157,0,0,1,2.943,13A16.131,16.131,0,0,1,87.4,86.27l-23.408,14.9a17.218,17.218,0,0,1-4.755,2.088" transform="translate(-1.534 -1.493)" fill="#fff"/></g></g></svg>