<svg xmlns="http://www.w3.org/2000/svg" width="105" height="105" viewBox="0 0 105 105"><g transform="translate(-811.5 -127.5)"><g transform="translate(814 130)"><rect width="100" height="100" rx="50" fill="#3178c6" stroke="#fff" stroke-width="5"/><rect width="100" height="100" fill="#3178c6" stroke="#fff" stroke-width="5"/><path d="M159.138,273.034v10.352a21.936,21.936,0,0,0,5.971,1.941,39.331,39.331,0,0,0,7.265.647,33.951,33.951,0,0,0,7.071-.712,17.332,17.332,0,0,0,5.874-2.345,11.949,11.949,0,0,0,4-4.27,15.043,15.043,0,0,0,.631-11.452,11.53,11.53,0,0,0-2.427-3.769,17.773,17.773,0,0,0-3.8-2.96,40.733,40.733,0,0,0-5-2.475q-2.039-.841-3.657-1.634a18.572,18.572,0,0,1-2.751-1.617,7.054,7.054,0,0,1-1.748-1.747,3.676,3.676,0,0,1-.615-2.087,3.488,3.488,0,0,1,.55-1.925,4.751,4.751,0,0,1,1.553-1.472,8.306,8.306,0,0,1,2.46-.954,14.269,14.269,0,0,1,3.236-.34,20.537,20.537,0,0,1,2.735.194,21.645,21.645,0,0,1,2.9.6,20.165,20.165,0,0,1,2.832,1.019,15.607,15.607,0,0,1,2.54,1.424v-9.673a25.272,25.272,0,0,0-5.162-1.342,42.059,42.059,0,0,0-6.424-.437,29.862,29.862,0,0,0-6.99.793,17.783,17.783,0,0,0-5.809,2.475,12.366,12.366,0,0,0-3.964,4.286,12.567,12.567,0,0,0-1.456,6.227,12.074,12.074,0,0,0,2.67,7.893,20.317,20.317,0,0,0,8.107,5.532q2.136.873,3.981,1.714a22.154,22.154,0,0,1,3.188,1.747,8.359,8.359,0,0,1,2.12,1.973,4.02,4.02,0,0,1,.777,2.426,3.712,3.712,0,0,1-.486,1.86,4.3,4.3,0,0,1-1.473,1.488,8.073,8.073,0,0,1-2.46.987,14.782,14.782,0,0,1-3.447.356,19.668,19.668,0,0,1-6.667-1.181,19.9,19.9,0,0,1-6.117-3.542Zm-17.4-25.505h13.28v-8.5H118v8.5h13.215v37.825h10.52Z" transform="translate(-99.599 -194.785)" fill="#fff" stroke="#fff" stroke-width="5" fill-rule="evenodd"/></g><g transform="translate(814 130)"><rect width="100" height="100" rx="50" fill="#3178c6"/><rect width="100" height="100" fill="#3178c6"/><path d="M159.138,273.034v10.352a21.936,21.936,0,0,0,5.971,1.941,39.331,39.331,0,0,0,7.265.647,33.951,33.951,0,0,0,7.071-.712,17.332,17.332,0,0,0,5.874-2.345,11.949,11.949,0,0,0,4-4.27,15.043,15.043,0,0,0,.631-11.452,11.53,11.53,0,0,0-2.427-3.769,17.773,17.773,0,0,0-3.8-2.96,40.733,40.733,0,0,0-5-2.475q-2.039-.841-3.657-1.634a18.572,18.572,0,0,1-2.751-1.617,7.054,7.054,0,0,1-1.748-1.747,3.676,3.676,0,0,1-.615-2.087,3.488,3.488,0,0,1,.55-1.925,4.751,4.751,0,0,1,1.553-1.472,8.306,8.306,0,0,1,2.46-.954,14.269,14.269,0,0,1,3.236-.34,20.537,20.537,0,0,1,2.735.194,21.645,21.645,0,0,1,2.9.6,20.165,20.165,0,0,1,2.832,1.019,15.607,15.607,0,0,1,2.54,1.424v-9.673a25.272,25.272,0,0,0-5.162-1.342,42.059,42.059,0,0,0-6.424-.437,29.862,29.862,0,0,0-6.99.793,17.783,17.783,0,0,0-5.809,2.475,12.366,12.366,0,0,0-3.964,4.286,12.567,12.567,0,0,0-1.456,6.227,12.074,12.074,0,0,0,2.67,7.893,20.317,20.317,0,0,0,8.107,5.532q2.136.873,3.981,1.714a22.154,22.154,0,0,1,3.188,1.747,8.359,8.359,0,0,1,2.12,1.973,4.02,4.02,0,0,1,.777,2.426,3.712,3.712,0,0,1-.486,1.86,4.3,4.3,0,0,1-1.473,1.488,8.073,8.073,0,0,1-2.46.987,14.782,14.782,0,0,1-3.447.356,19.668,19.668,0,0,1-6.667-1.181,19.9,19.9,0,0,1-6.117-3.542Zm-17.4-25.505h13.28v-8.5H118v8.5h13.215v37.825h10.52Z" transform="translate(-99.599 -194.785)" fill="#fff" fill-rule="evenodd"/></g></g></svg>